<?xml version="1.0" standalone="no"?>
<!DOCTYPE svg PUBLIC "-//W3C//DTD SVG 20010904//EN"
 "http://www.w3.org/TR/2001/REC-SVG-20010904/DTD/svg10.dtd">
<svg version="1.0" xmlns="http://www.w3.org/2000/svg"
 width="341.000000pt" height="192.000000pt" viewBox="0 0 341.000000 192.000000"
 preserveAspectRatio="xMidYMid meet">

<g transform="translate(0.000000,192.000000) scale(0.100000,-0.100000)"
fill="#000000" stroke="none">
<path d="M2020 1060 c0 -55 -4 -100 -8 -100 -19 0 -32 27 -32 65 0 47 -14 65
-49 65 -23 -1 -24 -2 -8 -11 12 -7 17 -23 17 -54 0 -25 6 -50 15 -58 13 -13
13 -16 0 -27 -9 -7 -15 -29 -15 -51 0 -26 -6 -41 -17 -48 -16 -9 -15 -10 8
-11 34 0 49 17 49 60 0 34 14 60 32 60 4 0 9 -35 11 -77 1 -43 4 4 5 105 1
100 0 182 -3 182 -3 0 -5 -45 -5 -100z"/>
<path d="M1441 1081 c-7 -5 -15 -30 -18 -57 -3 -27 -12 -54 -19 -60 -13 -10
-12 -12 1 -18 10 -3 15 -18 15 -41 0 -50 16 -75 46 -75 23 0 24 1 10 16 -9 8
-16 32 -16 53 0 20 -5 42 -11 48 -8 8 -8 13 0 17 6 4 11 26 11 48 0 25 7 49
17 60 15 17 15 18 -3 18 -10 0 -25 -4 -33 -9z"/>
<path d="M1680 945 c0 -122 2 -145 15 -145 13 0 15 23 15 145 0 122 -2 145
-15 145 -13 0 -15 -23 -15 -145z"/>
<path d="M1541 1056 c-48 -51 -32 -168 25 -182 41 -11 78 14 82 55 4 41 -21
71 -60 71 -30 0 -39 25 -16 48 17 17 48 15 48 -3 0 -8 5 -15 11 -15 6 0 9 10
7 23 -5 34 -66 36 -97 3z m58 -98 c10 -28 2 -68 -14 -68 -16 0 -25 22 -25 61
0 35 27 40 39 7z"/>
<path d="M1770 1060 c-42 -42 -13 -110 47 -110 15 0 23 -6 23 -18 0 -40 -50
-57 -70 -24 -9 15 -10 14 -8 -8 3 -21 9 -26 38 -28 28 -2 41 3 60 23 21 22 25
37 25 85 0 43 -5 63 -19 79 -24 27 -70 27 -96 1z m68 -48 c3 -38 1 -43 -15
-40 -13 2 -19 14 -21 46 -3 38 -1 43 15 40 13 -2 19 -14 21 -46z"/>
</g>
</svg>
